<svg width="249" height="350" viewBox="0 0 249 350" fill="none" xmlns="http://www.w3.org/2000/svg">
<g clip-path="url(#clip0_460_5233)">
<path d="M113.08 89.8331V82.8331H120.08V89.8331H113.08Z" fill="#F5BD33"/>
<path d="M113.08 221.083V214.083H120.08V221.083H113.08Z" fill="#3FBDF1"/>
<path d="M113.08 46.0835V39.0835H120.08V46.0835H113.08Z" fill="#3FBDF1"/>
<path d="M113.08 177.333V170.333H120.08V177.333H113.08Z" fill="#F5BD33"/>
<path d="M113.08 133.583V126.583H120.08V133.583H113.08Z" fill="#3FBDF1"/>
<path d="M113.08 264.833V257.833H120.08V264.833H113.08Z" fill="#F5BD33"/>
<path d="M113.08 308.583V301.583H120.08V308.583H113.08Z" fill="#3FBDF1"/>
<path d="M200.58 89.8331V82.8331H207.58V89.8331H200.58Z" fill="#F5BD33"/>
<path d="M200.58 221.083V214.083H207.58V221.083H200.58Z" fill="#3FBDF1"/>
<path d="M200.58 46.0835V39.0835H207.58V46.0835H200.58Z" fill="#3FBDF1"/>
<path d="M200.58 177.333V170.333H207.58V177.333H200.58Z" fill="#F5BD33"/>
<path d="M200.58 133.583V126.583H207.58V133.583H200.58Z" fill="#3FBDF1"/>
<path d="M200.58 264.833V257.833H207.58V264.833H200.58Z" fill="#F5BD33"/>
<path d="M200.58 308.583V301.583H207.58V308.583H200.58Z" fill="#3FBDF1"/>
<path d="M69.3297 89.8331V82.8331H76.3297V89.8331H69.3297Z" fill="#3FBDF1"/>
<path d="M69.3297 221.083V214.083H76.3297V221.083H69.3297Z" fill="#F5BD33"/>
<path d="M69.3297 46.0835V39.0835H76.3297V46.0835H69.3297Z" fill="#F5BD33"/>
<path d="M69.3297 177.333V170.333H76.3297V177.333H69.3297Z" fill="#3FBDF1"/>
<path d="M69.3297 133.583V126.583H76.3297V133.583H69.3297Z" fill="#F5BD33"/>
<path d="M69.3297 264.833V257.833H76.3297V264.833H69.3297Z" fill="#3FBDF1"/>
<path d="M69.3297 308.583V301.583H76.3297V308.583H69.3297Z" fill="#F5BD33"/>
<path d="M156.83 89.8331V82.8331H163.83V89.8331H156.83Z" fill="#3FBDF1"/>
<path d="M156.83 221.083V214.083H163.83V221.083H156.83Z" fill="#F5BD33"/>
<path d="M156.83 46.0835V39.0835H163.83V46.0835H156.83Z" fill="#F5BD33"/>
<path d="M156.83 177.333V170.333H163.83V177.333H156.83Z" fill="#3FBDF1"/>
<path d="M156.83 133.583V126.583H163.83V133.583H156.83Z" fill="#F5BD33"/>
<path d="M156.83 264.833V257.833H163.83V264.833H156.83Z" fill="#3FBDF1"/>
<path d="M156.83 308.583V301.583H163.83V308.583H156.83Z" fill="#F5BD33"/>
<path d="M25.5797 89.8331V82.8331H32.5797V89.8331H25.5797Z" fill="#F5BD33"/>
<path d="M25.5797 221.083V214.083H32.5797V221.083H25.5797Z" fill="#3FBDF1"/>
<path d="M25.5797 46.0835V39.0835H32.5797V46.0835H25.5797Z" fill="#3FBDF1"/>
<path d="M25.5797 177.333V170.333H32.5797V177.333H25.5797Z" fill="#F5BD33"/>
<path d="M25.5797 133.583V126.583H32.5797V133.583H25.5797Z" fill="#3FBDF1"/>
<path d="M25.5797 264.833V257.833H32.5797V264.833H25.5797Z" fill="#F5BD33"/>
<path d="M25.5797 308.583V301.583H32.5797V308.583H25.5797Z" fill="#3FBDF1"/>
<path d="M32.5797 350H25.5797V346.5H32.5797V350Z" fill="#F5BD33"/>
<path d="M76.3297 350H69.3297V346.5H76.3297V350Z" fill="#3FBDF1"/>
<path d="M120.08 350H113.08V346.5H120.08V350Z" fill="#F5BD33"/>
<path d="M163.83 350H156.83V346.5H163.83V350Z" fill="#3FBDF1"/>
<path d="M207.58 350H200.58V346.5H207.58V350Z" fill="#F5BD33"/>
<path d="M249 346.5V350H245.5V346.5H249Z" fill="#3FBDF1"/>
<path d="M249 301.583V308.583H245.5V301.583H249Z" fill="#F5BD33"/>
<path d="M249 257.833V264.833H245.5V257.833H249Z" fill="#3FBDF1"/>
<path d="M249 214.083V221.083H245.5V214.083H249Z" fill="#F5BD33"/>
<path d="M249 170.333V177.333H245.5V170.333H249Z" fill="#3FBDF1"/>
<path d="M249 126.583V133.583H245.5V126.583H249Z" fill="#F5BD33"/>
<path d="M249 82.8331V89.8331H245.5V82.8331H249Z" fill="#3FBDF1"/>
<path d="M249 39.0835V46.0835H245.5V39.0835H249Z" fill="#F5BD33"/>
<path d="M245.5 0V3.5H249V0H245.5Z" fill="#3FBDF1"/>
<path d="M200.58 0V3.5H207.58V0H200.58Z" fill="#F5BD33"/>
<path d="M156.83 0V3.5H163.83V0H156.83Z" fill="#3FBDF1"/>
<path d="M113.08 0V3.5H120.08V0H113.08Z" fill="#F5BD33"/>
<path d="M69.3297 0V3.5H76.3297V0H69.3297Z" fill="#3FBDF1"/>
<path d="M25.5797 0V3.5H32.5797V0H25.5797Z" fill="#F5BD33"/>
</g>
<defs>
<clipPath id="clip0_460_5233">
<rect width="350" height="350" fill="white" transform="translate(-101)"/>
</clipPath>
</defs>
</svg>
